<?xml version="1.0" encoding="UTF-8"?>
<svg version="1.1" xmlns="http://www.w3.org/2000/svg" width="194" height="58">
<path d="M0 0 C1.23556641 0.01740234 1.23556641 0.01740234 2.49609375 0.03515625 C3.32238281 0.04417969 4.14867187 0.05320312 5 0.0625 C5.63808594 0.07410156 6.27617188 0.08570313 6.93359375 0.09765625 C9.85968103 8.29070064 11.89198048 16.65138815 13.93359375 25.09765625 C15.48583545 22.22713988 16.43384992 19.53844366 17.1875 16.3671875 C17.40212891 15.48224609 17.61675781 14.59730469 17.83789062 13.68554688 C18.05509766 12.76966797 18.27230469 11.85378906 18.49609375 10.91015625 C18.93171654 9.08257259 19.37035547 7.25570433 19.8125 5.4296875 C20.09975952 4.21889526 20.09975952 4.21889526 20.39282227 2.98364258 C20.93359375 1.09765625 20.93359375 1.09765625 21.93359375 0.09765625 C23.43097499 -0.00024945 24.93302267 -0.03209239 26.43359375 -0.02734375 C27.24828125 -0.02992188 28.06296875 -0.0325 28.90234375 -0.03515625 C30.93359375 0.09765625 30.93359375 0.09765625 31.93359375 1.09765625 C32.02628374 2.44860607 32.05106701 3.80432716 32.04711914 5.15844727 C32.04704361 6.01926407 32.04696808 6.88008087 32.04689026 7.76698303 C32.04172897 8.70239426 32.03656769 9.63780548 32.03125 10.6015625 C32.02983505 11.55457748 32.0284201 12.50759247 32.02696228 13.48948669 C32.02134527 16.5464079 32.00878991 19.60325702 31.99609375 22.66015625 C31.99108094 24.72721249 31.98651766 26.79426987 31.98242188 28.86132812 C31.97137031 33.94013213 31.9540943 39.01888195 31.93359375 44.09765625 C29.62109375 44.72265625 29.62109375 44.72265625 26.93359375 45.09765625 C25.94359375 44.43765625 24.95359375 43.77765625 23.93359375 43.09765625 C23.59301758 40.94287109 23.59301758 40.94287109 23.640625 38.30859375 C23.65029297 37.36757813 23.65996094 36.4265625 23.66992188 35.45703125 C23.69505859 34.4721875 23.72019531 33.48734375 23.74609375 32.47265625 C23.75962891 31.48007812 23.77316406 30.4875 23.78710938 29.46484375 C23.82253632 27.00857553 23.87193179 24.5533834 23.93359375 22.09765625 C23.55267578 23.34869141 23.55267578 23.34869141 23.1640625 24.625 C21.16962034 31.14615357 19.12286942 37.63929301 16.93359375 44.09765625 C14.95359375 44.09765625 12.97359375 44.09765625 10.93359375 44.09765625 C8.95359375 36.50765625 6.97359375 28.91765625 4.93359375 21.09765625 C4.60359375 28.68765625 4.27359375 36.27765625 3.93359375 44.09765625 C1.62359375 44.09765625 -0.68640625 44.09765625 -3.06640625 44.09765625 C-3.09105138 37.99210915 -3.10923996 31.88659074 -3.12133789 25.78100586 C-3.12637913 23.70222469 -3.13321199 21.62344709 -3.1418457 19.54467773 C-3.15392047 16.56363039 -3.15963649 13.58262976 -3.1640625 10.6015625 C-3.17180443 9.19844566 -3.17180443 9.19844566 -3.17970276 7.76698303 C-3.17977829 6.90616623 -3.17985382 6.04534943 -3.17993164 5.15844727 C-3.18215225 4.3967775 -3.18437286 3.63510773 -3.18666077 2.85035706 C-3.00866078 0.25602022 -2.58730947 0.1222736 0 0 Z " fill="#2A2663" transform="translate(53.06640625,7.90234375)"/>
<path d="M0 0 C4.51926096 2.45612009 5.89847169 5.43151243 7.51953125 10.09765625 C8 12 8 12 8 15 C4.75 15.375 4.75 15.375 1 15 C-0.36176581 13.01924973 -1.69593116 11.01920337 -3 9 C-6.04340127 8.16650049 -6.04340127 8.16650049 -9 9 C-12.17019371 12.06087669 -12.86200825 15.26714206 -13.203125 19.55078125 C-13.30264732 25.41430433 -13.3379059 30.04697834 -10 35 C-6.41136476 36.0615942 -6.41136476 36.0615942 -3 36 C-0.84622436 33.37801226 0.40072174 31.35595828 1 28 C0.030625 28.020625 -0.93875 28.04125 -1.9375 28.0625 C-5 28 -5 28 -6 27 C-5.71269945 24.66055264 -5.38063221 22.3260857 -5 20 C-0.71 20 3.58 20 8 20 C8 27.92 8 35.84 8 44 C6.35 44 4.7 44 3 44 C2.67 43.34 2.34 42.68 2 42 C1.525625 42.495 1.05125 42.99 0.5625 43.5 C-3.27593487 45.7468887 -6.6659757 45.89165424 -11 45 C-15.76355456 42.42164609 -18.39251586 39.02282726 -20.41552734 33.99584961 C-21.47638807 30.37323622 -21.43194159 26.81115458 -21.375 23.0625 C-21.38660156 22.30259766 -21.39820312 21.54269531 -21.41015625 20.75976562 C-21.37549005 13.99407931 -20.04158065 8.4080182 -15.5625 3.125 C-10.29974437 -1.23923638 -6.56044627 -1.58436538 0 0 Z " fill="#2B2762" transform="translate(140,8)"/>
<path d="M0 0 C0.76441406 -0.020625 1.52882813 -0.04125 2.31640625 -0.0625 C6.95094764 -0.09451756 10.01030569 0.21017287 13.75 3.25 C16.78479913 8.4824123 17.57031416 13.24530035 16.75 19.25 C15.3358269 22.88644512 13.83610901 25.80683037 10.75 28.25 C7.86788698 29.21070434 6.05149956 29.35581883 3.0625 29.3125 C1.639375 29.291875 0.21625 29.27125 -1.25 29.25 C-1.25 34.2 -1.25 39.15 -1.25 44.25 C-6.25 45.25 -6.25 45.25 -9.25 44.25 C-9.27464513 38.1444529 -9.29283371 32.03893449 -9.30493164 25.93334961 C-9.30997288 23.85456844 -9.31680574 21.77579084 -9.32543945 19.69702148 C-9.33751422 16.71597414 -9.34323024 13.73497351 -9.34765625 10.75390625 C-9.35539818 9.35078941 -9.35539818 9.35078941 -9.36329651 7.91932678 C-9.36337204 7.05850998 -9.36344757 6.19769318 -9.36352539 5.31079102 C-9.365746 4.54912125 -9.36796661 3.78745148 -9.37025452 3.00270081 C-9.0576517 -1.55346239 -3.46608953 0.02291629 0 0 Z M-1.25 8.25 C-1.25 12.54 -1.25 16.83 -1.25 21.25 C4.07170494 21.54562367 4.07170494 21.54562367 8.75 19.25 C9.64562115 16.08087902 10.03915213 14.07297146 8.9375 10.9375 C7.84312675 9.09902178 7.84312675 9.09902178 5.75 8.25 C3.4170134 8.20977609 1.08293334 8.20679753 -1.25 8.25 Z " fill="#272460" transform="translate(99.25,7.75)"/>
</svg>
